<?xml version="1.0" encoding="utf-8" standalone="no"?>
<!DOCTYPE svg PUBLIC "-//W3C//DTD SVG 1.1//EN"
  "http://www.w3.org/Graphics/SVG/1.1/DTD/svg11.dtd">
<!-- Created with matplotlib (https://matplotlib.org/) -->
<svg height="288pt" version="1.1" viewBox="0 0 432 288" width="432pt" xmlns="http://www.w3.org/2000/svg" xmlns:xlink="http://www.w3.org/1999/xlink">
 <defs>
  <style type="text/css">
*{stroke-linecap:butt;stroke-linejoin:round;}
  </style>
 </defs>
 <g id="figure_1">
  <g id="patch_1">
   <path d="M 0 288 
L 432 288 
L 432 0 
L 0 0 
z
" style="fill:#ffffff;"/>
  </g>
  <g id="axes_1">
   <g id="patch_2">
    <path d="M 54 252 
L 388.8 252 
L 388.8 34.56 
L 54 34.56 
z
" style="fill:#ffffff;"/>
   </g>
   <g id="PathCollection_1">
    <defs>
     <path d="M 0 3 
C 0.795609 3 1.55874 2.683901 2.12132 2.12132 
C 2.683901 1.55874 3 0.795609 3 0 
C 3 -0.795609 2.683901 -1.55874 2.12132 -2.12132 
C 1.55874 -2.683901 0.795609 -3 0 -3 
C -0.795609 -3 -1.55874 -2.683901 -2.12132 -2.12132 
C -2.683901 -1.55874 -3 -0.795609 -3 0 
C -3 0.795609 -2.683901 1.55874 -2.12132 2.12132 
C -1.55874 2.683901 -0.795609 3 0 3 
z
" id="md904eb8c56" style="stroke:#ffffff;stroke-width:0.75;"/>
    </defs>
    <g clip-path="url(#p035d822959)">
     <use style="fill:#f4a460;stroke:#ffffff;stroke-width:0.75;" x="69.218182" xlink:href="#md904eb8c56" y="251.999534"/>
     <use style="fill:#f4a460;stroke:#ffffff;stroke-width:0.75;" x="72.292562" xlink:href="#md904eb8c56" y="251.999513"/>
     <use style="fill:#f4a460;stroke:#ffffff;stroke-width:0.75;" x="75.366942" xlink:href="#md904eb8c56" y="251.99933"/>
     <use style="fill:#f4a460;stroke:#ffffff;stroke-width:0.75;" x="78.441322" xlink:href="#md904eb8c56" y="251.99945"/>
     <use style="fill:#f4a460;stroke:#ffffff;stroke-width:0.75;" x="81.515702" xlink:href="#md904eb8c56" y="251.99942"/>
     <use style="fill:#f4a460;stroke:#ffffff;stroke-width:0.75;" x="84.590083" xlink:href="#md904eb8c56" y="251.999388"/>
     <use style="fill:#f4a460;stroke:#ffffff;stroke-width:0.75;" x="87.664463" xlink:href="#md904eb8c56" y="251.999102"/>
     <use style="fill:#f4a460;stroke:#ffffff;stroke-width:0.75;" x="90.738843" xlink:href="#md904eb8c56" y="251.999265"/>
     <use style="fill:#f4a460;stroke:#ffffff;stroke-width:0.75;" x="93.813223" xlink:href="#md904eb8c56" y="251.999257"/>
     <use style="fill:#f4a460;stroke:#ffffff;stroke-width:0.75;" x="96.887603" xlink:href="#md904eb8c56" y="251.999101"/>
     <use style="fill:#f4a460;stroke:#ffffff;stroke-width:0.75;" x="99.961983" xlink:href="#md904eb8c56" y="251.999119"/>
     <use style="fill:#f4a460;stroke:#ffffff;stroke-width:0.75;" x="103.036364" xlink:href="#md904eb8c56" y="251.999093"/>
     <use style="fill:#f4a460;stroke:#ffffff;stroke-width:0.75;" x="106.110744" xlink:href="#md904eb8c56" y="251.998923"/>
     <use style="fill:#f4a460;stroke:#ffffff;stroke-width:0.75;" x="109.185124" xlink:href="#md904eb8c56" y="251.998731"/>
     <use style="fill:#f4a460;stroke:#ffffff;stroke-width:0.75;" x="112.259504" xlink:href="#md904eb8c56" y="251.998809"/>
     <use style="fill:#f4a460;stroke:#ffffff;stroke-width:0.75;" x="115.333884" xlink:href="#md904eb8c56" y="251.998427"/>
     <use style="fill:#f4a460;stroke:#ffffff;stroke-width:0.75;" x="118.408264" xlink:href="#md904eb8c56" y="251.998503"/>
     <use style="fill:#f4a460;stroke:#ffffff;stroke-width:0.75;" x="121.482645" xlink:href="#md904eb8c56" y="251.998382"/>
     <use style="fill:#f4a460;stroke:#ffffff;stroke-width:0.75;" x="124.557025" xlink:href="#md904eb8c56" y="251.996872"/>
     <use style="fill:#f4a460;stroke:#ffffff;stroke-width:0.75;" x="127.631405" xlink:href="#md904eb8c56" y="251.998227"/>
     <use style="fill:#f4a460;stroke:#ffffff;stroke-width:0.75;" x="130.705785" xlink:href="#md904eb8c56" y="251.997324"/>
     <use style="fill:#f4a460;stroke:#ffffff;stroke-width:0.75;" x="133.780165" xlink:href="#md904eb8c56" y="251.997177"/>
     <use style="fill:#f4a460;stroke:#ffffff;stroke-width:0.75;" x="136.854545" xlink:href="#md904eb8c56" y="251.994892"/>
     <use style="fill:#f4a460;stroke:#ffffff;stroke-width:0.75;" x="139.928926" xlink:href="#md904eb8c56" y="251.99495"/>
     <use style="fill:#f4a460;stroke:#ffffff;stroke-width:0.75;" x="143.003306" xlink:href="#md904eb8c56" y="251.994839"/>
     <use style="fill:#f4a460;stroke:#ffffff;stroke-width:0.75;" x="146.077686" xlink:href="#md904eb8c56" y="251.996813"/>
     <use style="fill:#f4a460;stroke:#ffffff;stroke-width:0.75;" x="149.152066" xlink:href="#md904eb8c56" y="251.996243"/>
     <use style="fill:#f4a460;stroke:#ffffff;stroke-width:0.75;" x="152.226446" xlink:href="#md904eb8c56" y="251.992688"/>
     <use style="fill:#f4a460;stroke:#ffffff;stroke-width:0.75;" x="155.300826" xlink:href="#md904eb8c56" y="251.995882"/>
     <use style="fill:#f4a460;stroke:#ffffff;stroke-width:0.75;" x="158.375207" xlink:href="#md904eb8c56" y="251.994009"/>
     <use style="fill:#f4a460;stroke:#ffffff;stroke-width:0.75;" x="161.449587" xlink:href="#md904eb8c56" y="251.993017"/>
     <use style="fill:#f4a460;stroke:#ffffff;stroke-width:0.75;" x="164.523967" xlink:href="#md904eb8c56" y="251.993872"/>
     <use style="fill:#f4a460;stroke:#ffffff;stroke-width:0.75;" x="167.598347" xlink:href="#md904eb8c56" y="251.985977"/>
     <use style="fill:#f4a460;stroke:#ffffff;stroke-width:0.75;" x="170.672727" xlink:href="#md904eb8c56" y="251.991389"/>
     <use style="fill:#f4a460;stroke:#ffffff;stroke-width:0.75;" x="173.747107" xlink:href="#md904eb8c56" y="251.988524"/>
     <use style="fill:#f4a460;stroke:#ffffff;stroke-width:0.75;" x="176.821488" xlink:href="#md904eb8c56" y="251.990322"/>
     <use style="fill:#f4a460;stroke:#ffffff;stroke-width:0.75;" x="179.895868" xlink:href="#md904eb8c56" y="251.984117"/>
     <use style="fill:#f4a460;stroke:#ffffff;stroke-width:0.75;" x="182.970248" xlink:href="#md904eb8c56" y="251.985107"/>
     <use style="fill:#f4a460;stroke:#ffffff;stroke-width:0.75;" x="186.044628" xlink:href="#md904eb8c56" y="251.987189"/>
     <use style="fill:#f4a460;stroke:#ffffff;stroke-width:0.75;" x="189.119008" xlink:href="#md904eb8c56" y="251.971454"/>
     <use style="fill:#f4a460;stroke:#ffffff;stroke-width:0.75;" x="192.193388" xlink:href="#md904eb8c56" y="251.987819"/>
     <use style="fill:#f4a460;stroke:#ffffff;stroke-width:0.75;" x="195.267769" xlink:href="#md904eb8c56" y="251.983304"/>
     <use style="fill:#f4a460;stroke:#ffffff;stroke-width:0.75;" x="198.342149" xlink:href="#md904eb8c56" y="251.987243"/>
     <use style="fill:#f4a460;stroke:#ffffff;stroke-width:0.75;" x="201.416529" xlink:href="#md904eb8c56" y="251.985723"/>
     <use style="fill:#f4a460;stroke:#ffffff;stroke-width:0.75;" x="204.490909" xlink:href="#md904eb8c56" y="251.975301"/>
     <use style="fill:#f4a460;stroke:#ffffff;stroke-width:0.75;" x="207.565289" xlink:href="#md904eb8c56" y="251.9717"/>
     <use style="fill:#f4a460;stroke:#ffffff;stroke-width:0.75;" x="210.639669" xlink:href="#md904eb8c56" y="251.980916"/>
     <use style="fill:#f4a460;stroke:#ffffff;stroke-width:0.75;" x="213.71405" xlink:href="#md904eb8c56" y="251.957384"/>
     <use style="fill:#f4a460;stroke:#ffffff;stroke-width:0.75;" x="216.78843" xlink:href="#md904eb8c56" y="251.972091"/>
     <use style="fill:#f4a460;stroke:#ffffff;stroke-width:0.75;" x="219.86281" xlink:href="#md904eb8c56" y="251.963479"/>
     <use style="fill:#f4a460;stroke:#ffffff;stroke-width:0.75;" x="222.93719" xlink:href="#md904eb8c56" y="251.9588"/>
     <use style="fill:#f4a460;stroke:#ffffff;stroke-width:0.75;" x="226.01157" xlink:href="#md904eb8c56" y="251.967588"/>
     <use style="fill:#f4a460;stroke:#ffffff;stroke-width:0.75;" x="229.08595" xlink:href="#md904eb8c56" y="251.963021"/>
     <use style="fill:#f4a460;stroke:#ffffff;stroke-width:0.75;" x="232.160331" xlink:href="#md904eb8c56" y="251.958935"/>
     <use style="fill:#f4a460;stroke:#ffffff;stroke-width:0.75;" x="235.234711" xlink:href="#md904eb8c56" y="251.92878"/>
     <use style="fill:#f4a460;stroke:#ffffff;stroke-width:0.75;" x="238.309091" xlink:href="#md904eb8c56" y="251.935833"/>
     <use style="fill:#f4a460;stroke:#ffffff;stroke-width:0.75;" x="241.383471" xlink:href="#md904eb8c56" y="251.938857"/>
     <use style="fill:#f4a460;stroke:#ffffff;stroke-width:0.75;" x="244.457851" xlink:href="#md904eb8c56" y="251.934273"/>
     <use style="fill:#f4a460;stroke:#ffffff;stroke-width:0.75;" x="247.532231" xlink:href="#md904eb8c56" y="251.92181"/>
     <use style="fill:#f4a460;stroke:#ffffff;stroke-width:0.75;" x="250.606612" xlink:href="#md904eb8c56" y="251.94398"/>
     <use style="fill:#f4a460;stroke:#ffffff;stroke-width:0.75;" x="253.680992" xlink:href="#md904eb8c56" y="251.937972"/>
     <use style="fill:#f4a460;stroke:#ffffff;stroke-width:0.75;" x="256.755372" xlink:href="#md904eb8c56" y="251.910534"/>
     <use style="fill:#f4a460;stroke:#ffffff;stroke-width:0.75;" x="259.829752" xlink:href="#md904eb8c56" y="251.923522"/>
     <use style="fill:#f4a460;stroke:#ffffff;stroke-width:0.75;" x="262.904132" xlink:href="#md904eb8c56" y="251.895539"/>
     <use style="fill:#f4a460;stroke:#ffffff;stroke-width:0.75;" x="265.978512" xlink:href="#md904eb8c56" y="251.847248"/>
     <use style="fill:#f4a460;stroke:#ffffff;stroke-width:0.75;" x="269.052893" xlink:href="#md904eb8c56" y="251.880781"/>
     <use style="fill:#f4a460;stroke:#ffffff;stroke-width:0.75;" x="272.127273" xlink:href="#md904eb8c56" y="251.947305"/>
     <use style="fill:#f4a460;stroke:#ffffff;stroke-width:0.75;" x="275.201653" xlink:href="#md904eb8c56" y="251.884982"/>
     <use style="fill:#f4a460;stroke:#ffffff;stroke-width:0.75;" x="278.276033" xlink:href="#md904eb8c56" y="251.853636"/>
     <use style="fill:#f4a460;stroke:#ffffff;stroke-width:0.75;" x="281.350413" xlink:href="#md904eb8c56" y="251.827031"/>
     <use style="fill:#f4a460;stroke:#ffffff;stroke-width:0.75;" x="284.424793" xlink:href="#md904eb8c56" y="251.842771"/>
     <use style="fill:#f4a460;stroke:#ffffff;stroke-width:0.75;" x="287.499174" xlink:href="#md904eb8c56" y="251.903494"/>
     <use style="fill:#f4a460;stroke:#ffffff;stroke-width:0.75;" x="290.573554" xlink:href="#md904eb8c56" y="251.79329"/>
     <use style="fill:#f4a460;stroke:#ffffff;stroke-width:0.75;" x="293.647934" xlink:href="#md904eb8c56" y="251.639015"/>
     <use style="fill:#f4a460;stroke:#ffffff;stroke-width:0.75;" x="296.722314" xlink:href="#md904eb8c56" y="251.766028"/>
     <use style="fill:#f4a460;stroke:#ffffff;stroke-width:0.75;" x="299.796694" xlink:href="#md904eb8c56" y="251.77369"/>
     <use style="fill:#f4a460;stroke:#ffffff;stroke-width:0.75;" x="302.871074" xlink:href="#md904eb8c56" y="251.738852"/>
     <use style="fill:#f4a460;stroke:#ffffff;stroke-width:0.75;" x="305.945455" xlink:href="#md904eb8c56" y="251.811557"/>
     <use style="fill:#f4a460;stroke:#ffffff;stroke-width:0.75;" x="309.019835" xlink:href="#md904eb8c56" y="251.661725"/>
     <use style="fill:#f4a460;stroke:#ffffff;stroke-width:0.75;" x="312.094215" xlink:href="#md904eb8c56" y="251.755607"/>
     <use style="fill:#f4a460;stroke:#ffffff;stroke-width:0.75;" x="315.168595" xlink:href="#md904eb8c56" y="251.219735"/>
     <use style="fill:#f4a460;stroke:#ffffff;stroke-width:0.75;" x="318.242975" xlink:href="#md904eb8c56" y="251.63569"/>
     <use style="fill:#f4a460;stroke:#ffffff;stroke-width:0.75;" x="321.317355" xlink:href="#md904eb8c56" y="251.064874"/>
     <use style="fill:#f4a460;stroke:#ffffff;stroke-width:0.75;" x="324.391736" xlink:href="#md904eb8c56" y="251.414807"/>
     <use style="fill:#f4a460;stroke:#ffffff;stroke-width:0.75;" x="327.466116" xlink:href="#md904eb8c56" y="251.607985"/>
     <use style="fill:#f4a460;stroke:#ffffff;stroke-width:0.75;" x="330.540496" xlink:href="#md904eb8c56" y="251.624525"/>
     <use style="fill:#f4a460;stroke:#ffffff;stroke-width:0.75;" x="333.614876" xlink:href="#md904eb8c56" y="251.713794"/>
     <use style="fill:#f4a460;stroke:#ffffff;stroke-width:0.75;" x="336.689256" xlink:href="#md904eb8c56" y="251.625119"/>
     <use style="fill:#f4a460;stroke:#ffffff;stroke-width:0.75;" x="339.763636" xlink:href="#md904eb8c56" y="251.406621"/>
     <use style="fill:#f4a460;stroke:#ffffff;stroke-width:0.75;" x="342.838017" xlink:href="#md904eb8c56" y="251.427151"/>
     <use style="fill:#f4a460;stroke:#ffffff;stroke-width:0.75;" x="345.912397" xlink:href="#md904eb8c56" y="250.578482"/>
     <use style="fill:#f4a460;stroke:#ffffff;stroke-width:0.75;" x="348.986777" xlink:href="#md904eb8c56" y="251.816443"/>
     <use style="fill:#f4a460;stroke:#ffffff;stroke-width:0.75;" x="352.061157" xlink:href="#md904eb8c56" y="251.691781"/>
     <use style="fill:#f4a460;stroke:#ffffff;stroke-width:0.75;" x="355.135537" xlink:href="#md904eb8c56" y="251.21764"/>
     <use style="fill:#f4a460;stroke:#ffffff;stroke-width:0.75;" x="358.209917" xlink:href="#md904eb8c56" y="251.424944"/>
     <use style="fill:#f4a460;stroke:#ffffff;stroke-width:0.75;" x="361.284298" xlink:href="#md904eb8c56" y="250.704924"/>
     <use style="fill:#f4a460;stroke:#ffffff;stroke-width:0.75;" x="364.358678" xlink:href="#md904eb8c56" y="251.146642"/>
     <use style="fill:#f4a460;stroke:#ffffff;stroke-width:0.75;" x="367.433058" xlink:href="#md904eb8c56" y="251.690413"/>
     <use style="fill:#f4a460;stroke:#ffffff;stroke-width:0.75;" x="370.507438" xlink:href="#md904eb8c56" y="250.217753"/>
     <use style="fill:#f4a460;stroke:#ffffff;stroke-width:0.75;" x="373.581818" xlink:href="#md904eb8c56" y="251.353565"/>
    </g>
   </g>
   <g id="PathCollection_2">
    <defs>
     <path d="M 0 3 
C 0.795609 3 1.55874 2.683901 2.12132 2.12132 
C 2.683901 1.55874 3 0.795609 3 0 
C 3 -0.795609 2.683901 -1.55874 2.12132 -2.12132 
C 1.55874 -2.683901 0.795609 -3 0 -3 
C -0.795609 -3 -1.55874 -2.683901 -2.12132 -2.12132 
C -2.683901 -1.55874 -3 -0.795609 -3 0 
C -3 0.795609 -2.683901 1.55874 -2.12132 2.12132 
C -1.55874 2.683901 -0.795609 3 0 3 
z
" id="m85150c2d51" style="stroke:#ffffff;stroke-width:0.75;"/>
    </defs>
    <g clip-path="url(#p035d822959)">
     <use style="fill:#98fb98;stroke:#ffffff;stroke-width:0.75;" x="69.218182" xlink:href="#m85150c2d51" y="251.99935"/>
     <use style="fill:#98fb98;stroke:#ffffff;stroke-width:0.75;" x="72.292562" xlink:href="#m85150c2d51" y="251.999519"/>
     <use style="fill:#98fb98;stroke:#ffffff;stroke-width:0.75;" x="75.366942" xlink:href="#m85150c2d51" y="251.99944"/>
     <use style="fill:#98fb98;stroke:#ffffff;stroke-width:0.75;" x="78.441322" xlink:href="#m85150c2d51" y="251.99939"/>
     <use style="fill:#98fb98;stroke:#ffffff;stroke-width:0.75;" x="81.515702" xlink:href="#m85150c2d51" y="251.999415"/>
     <use style="fill:#98fb98;stroke:#ffffff;stroke-width:0.75;" x="84.590083" xlink:href="#m85150c2d51" y="251.999267"/>
     <use style="fill:#98fb98;stroke:#ffffff;stroke-width:0.75;" x="87.664463" xlink:href="#m85150c2d51" y="251.999216"/>
     <use style="fill:#98fb98;stroke:#ffffff;stroke-width:0.75;" x="90.738843" xlink:href="#m85150c2d51" y="251.999204"/>
     <use style="fill:#98fb98;stroke:#ffffff;stroke-width:0.75;" x="93.813223" xlink:href="#m85150c2d51" y="251.998349"/>
     <use style="fill:#98fb98;stroke:#ffffff;stroke-width:0.75;" x="96.887603" xlink:href="#m85150c2d51" y="251.998832"/>
     <use style="fill:#98fb98;stroke:#ffffff;stroke-width:0.75;" x="99.961983" xlink:href="#m85150c2d51" y="251.997908"/>
     <use style="fill:#98fb98;stroke:#ffffff;stroke-width:0.75;" x="103.036364" xlink:href="#m85150c2d51" y="251.997591"/>
     <use style="fill:#98fb98;stroke:#ffffff;stroke-width:0.75;" x="106.110744" xlink:href="#m85150c2d51" y="251.996475"/>
     <use style="fill:#98fb98;stroke:#ffffff;stroke-width:0.75;" x="109.185124" xlink:href="#m85150c2d51" y="251.995954"/>
     <use style="fill:#98fb98;stroke:#ffffff;stroke-width:0.75;" x="112.259504" xlink:href="#m85150c2d51" y="251.992792"/>
     <use style="fill:#98fb98;stroke:#ffffff;stroke-width:0.75;" x="115.333884" xlink:href="#m85150c2d51" y="251.993573"/>
     <use style="fill:#98fb98;stroke:#ffffff;stroke-width:0.75;" x="118.408264" xlink:href="#m85150c2d51" y="251.99455"/>
     <use style="fill:#98fb98;stroke:#ffffff;stroke-width:0.75;" x="121.482645" xlink:href="#m85150c2d51" y="251.994925"/>
     <use style="fill:#98fb98;stroke:#ffffff;stroke-width:0.75;" x="124.557025" xlink:href="#m85150c2d51" y="251.980568"/>
     <use style="fill:#98fb98;stroke:#ffffff;stroke-width:0.75;" x="127.631405" xlink:href="#m85150c2d51" y="251.987795"/>
     <use style="fill:#98fb98;stroke:#ffffff;stroke-width:0.75;" x="130.705785" xlink:href="#m85150c2d51" y="251.958517"/>
     <use style="fill:#98fb98;stroke:#ffffff;stroke-width:0.75;" x="133.780165" xlink:href="#m85150c2d51" y="251.982431"/>
     <use style="fill:#98fb98;stroke:#ffffff;stroke-width:0.75;" x="136.854545" xlink:href="#m85150c2d51" y="251.974544"/>
     <use style="fill:#98fb98;stroke:#ffffff;stroke-width:0.75;" x="139.928926" xlink:href="#m85150c2d51" y="251.965244"/>
     <use style="fill:#98fb98;stroke:#ffffff;stroke-width:0.75;" x="143.003306" xlink:href="#m85150c2d51" y="251.936761"/>
     <use style="fill:#98fb98;stroke:#ffffff;stroke-width:0.75;" x="146.077686" xlink:href="#m85150c2d51" y="251.941273"/>
     <use style="fill:#98fb98;stroke:#ffffff;stroke-width:0.75;" x="149.152066" xlink:href="#m85150c2d51" y="251.92309"/>
     <use style="fill:#98fb98;stroke:#ffffff;stroke-width:0.75;" x="152.226446" xlink:href="#m85150c2d51" y="251.889207"/>
     <use style="fill:#98fb98;stroke:#ffffff;stroke-width:0.75;" x="155.300826" xlink:href="#m85150c2d51" y="251.889459"/>
     <use style="fill:#98fb98;stroke:#ffffff;stroke-width:0.75;" x="158.375207" xlink:href="#m85150c2d51" y="251.854431"/>
     <use style="fill:#98fb98;stroke:#ffffff;stroke-width:0.75;" x="161.449587" xlink:href="#m85150c2d51" y="251.825736"/>
     <use style="fill:#98fb98;stroke:#ffffff;stroke-width:0.75;" x="164.523967" xlink:href="#m85150c2d51" y="251.771444"/>
     <use style="fill:#98fb98;stroke:#ffffff;stroke-width:0.75;" x="167.598347" xlink:href="#m85150c2d51" y="251.536889"/>
     <use style="fill:#98fb98;stroke:#ffffff;stroke-width:0.75;" x="170.672727" xlink:href="#m85150c2d51" y="251.787438"/>
     <use style="fill:#98fb98;stroke:#ffffff;stroke-width:0.75;" x="173.747107" xlink:href="#m85150c2d51" y="251.095258"/>
     <use style="fill:#98fb98;stroke:#ffffff;stroke-width:0.75;" x="176.821488" xlink:href="#m85150c2d51" y="251.698793"/>
     <use style="fill:#98fb98;stroke:#ffffff;stroke-width:0.75;" x="179.895868" xlink:href="#m85150c2d51" y="251.622825"/>
     <use style="fill:#98fb98;stroke:#ffffff;stroke-width:0.75;" x="182.970248" xlink:href="#m85150c2d51" y="251.78515"/>
     <use style="fill:#98fb98;stroke:#ffffff;stroke-width:0.75;" x="186.044628" xlink:href="#m85150c2d51" y="251.585853"/>
     <use style="fill:#98fb98;stroke:#ffffff;stroke-width:0.75;" x="189.119008" xlink:href="#m85150c2d51" y="251.429358"/>
     <use style="fill:#98fb98;stroke:#ffffff;stroke-width:0.75;" x="192.193388" xlink:href="#m85150c2d51" y="251.059753"/>
     <use style="fill:#98fb98;stroke:#ffffff;stroke-width:0.75;" x="195.267769" xlink:href="#m85150c2d51" y="250.094113"/>
     <use style="fill:#98fb98;stroke:#ffffff;stroke-width:0.75;" x="198.342149" xlink:href="#m85150c2d51" y="248.116558"/>
     <use style="fill:#98fb98;stroke:#ffffff;stroke-width:0.75;" x="201.416529" xlink:href="#m85150c2d51" y="251.155985"/>
     <use style="fill:#98fb98;stroke:#ffffff;stroke-width:0.75;" x="204.490909" xlink:href="#m85150c2d51" y="250.74162"/>
     <use style="fill:#98fb98;stroke:#ffffff;stroke-width:0.75;" x="207.565289" xlink:href="#m85150c2d51" y="250.522408"/>
     <use style="fill:#98fb98;stroke:#ffffff;stroke-width:0.75;" x="210.639669" xlink:href="#m85150c2d51" y="249.443975"/>
     <use style="fill:#98fb98;stroke:#ffffff;stroke-width:0.75;" x="213.71405" xlink:href="#m85150c2d51" y="250.404063"/>
     <use style="fill:#98fb98;stroke:#ffffff;stroke-width:0.75;" x="216.78843" xlink:href="#m85150c2d51" y="240.644667"/>
     <use style="fill:#98fb98;stroke:#ffffff;stroke-width:0.75;" x="219.86281" xlink:href="#m85150c2d51" y="249.823197"/>
     <use style="fill:#98fb98;stroke:#ffffff;stroke-width:0.75;" x="222.93719" xlink:href="#m85150c2d51" y="242.18436"/>
     <use style="fill:#98fb98;stroke:#ffffff;stroke-width:0.75;" x="226.01157" xlink:href="#m85150c2d51" y="249.884631"/>
     <use style="fill:#98fb98;stroke:#ffffff;stroke-width:0.75;" x="229.08595" xlink:href="#m85150c2d51" y="245.833728"/>
     <use style="fill:#98fb98;stroke:#ffffff;stroke-width:0.75;" x="232.160331" xlink:href="#m85150c2d51" y="247.484387"/>
     <use style="fill:#98fb98;stroke:#ffffff;stroke-width:0.75;" x="235.234711" xlink:href="#m85150c2d51" y="230.195733"/>
     <use style="fill:#98fb98;stroke:#ffffff;stroke-width:0.75;" x="238.309091" xlink:href="#m85150c2d51" y="244.385396"/>
     <use style="fill:#98fb98;stroke:#ffffff;stroke-width:0.75;" x="241.383471" xlink:href="#m85150c2d51" y="224.929843"/>
     <use style="fill:#98fb98;stroke:#ffffff;stroke-width:0.75;" x="244.457851" xlink:href="#m85150c2d51" y="243.539011"/>
     <use style="fill:#98fb98;stroke:#ffffff;stroke-width:0.75;" x="247.532231" xlink:href="#m85150c2d51" y="223.037789"/>
     <use style="fill:#98fb98;stroke:#ffffff;stroke-width:0.75;" x="250.606612" xlink:href="#m85150c2d51" y="243.908768"/>
     <use style="fill:#98fb98;stroke:#ffffff;stroke-width:0.75;" x="253.680992" xlink:href="#m85150c2d51" y="236.84349"/>
     <use style="fill:#98fb98;stroke:#ffffff;stroke-width:0.75;" x="256.755372" xlink:href="#m85150c2d51" y="225.91713"/>
     <use style="fill:#98fb98;stroke:#ffffff;stroke-width:0.75;" x="259.829752" xlink:href="#m85150c2d51" y="217.490279"/>
     <use style="fill:#98fb98;stroke:#ffffff;stroke-width:0.75;" x="262.904132" xlink:href="#m85150c2d51" y="233.20021"/>
     <use style="fill:#98fb98;stroke:#ffffff;stroke-width:0.75;" x="265.978512" xlink:href="#m85150c2d51" y="206.596354"/>
     <use style="fill:#98fb98;stroke:#ffffff;stroke-width:0.75;" x="269.052893" xlink:href="#m85150c2d51" y="204.510017"/>
     <use style="fill:#98fb98;stroke:#ffffff;stroke-width:0.75;" x="272.127273" xlink:href="#m85150c2d51" y="222.745514"/>
     <use style="fill:#98fb98;stroke:#ffffff;stroke-width:0.75;" x="275.201653" xlink:href="#m85150c2d51" y="211.434031"/>
     <use style="fill:#98fb98;stroke:#ffffff;stroke-width:0.75;" x="278.276033" xlink:href="#m85150c2d51" y="143.120544"/>
     <use style="fill:#98fb98;stroke:#ffffff;stroke-width:0.75;" x="281.350413" xlink:href="#m85150c2d51" y="217.896747"/>
     <use style="fill:#98fb98;stroke:#ffffff;stroke-width:0.75;" x="284.424793" xlink:href="#m85150c2d51" y="207.939046"/>
     <use style="fill:#98fb98;stroke:#ffffff;stroke-width:0.75;" x="287.499174" xlink:href="#m85150c2d51" y="155.026471"/>
     <use style="fill:#98fb98;stroke:#ffffff;stroke-width:0.75;" x="290.573554" xlink:href="#m85150c2d51" y="34.983283"/>
     <use style="fill:#98fb98;stroke:#ffffff;stroke-width:0.75;" x="293.647934" xlink:href="#m85150c2d51" y="203.09267"/>
     <use style="fill:#98fb98;stroke:#ffffff;stroke-width:0.75;" x="296.722314" xlink:href="#m85150c2d51" y="200.423594"/>
     <use style="fill:#98fb98;stroke:#ffffff;stroke-width:0.75;" x="299.796694" xlink:href="#m85150c2d51" y="227.076157"/>
     <use style="fill:#98fb98;stroke:#ffffff;stroke-width:0.75;" x="302.871074" xlink:href="#m85150c2d51" y="85.761684"/>
     <use style="fill:#98fb98;stroke:#ffffff;stroke-width:0.75;" x="305.945455" xlink:href="#m85150c2d51" y="207.26027"/>
     <use style="fill:#98fb98;stroke:#ffffff;stroke-width:0.75;" x="309.019835" xlink:href="#m85150c2d51" y="-0.035066"/>
     <use style="fill:#98fb98;stroke:#ffffff;stroke-width:0.75;" x="312.094215" xlink:href="#m85150c2d51" y="39.78617"/>
     <use style="fill:#98fb98;stroke:#ffffff;stroke-width:0.75;" x="315.168595" xlink:href="#m85150c2d51" y="191.183844"/>
     <use style="fill:#98fb98;stroke:#ffffff;stroke-width:0.75;" x="318.242975" xlink:href="#m85150c2d51" y="56.282256"/>
     <use style="fill:#98fb98;stroke:#ffffff;stroke-width:0.75;" x="321.317355" xlink:href="#m85150c2d51" y="154.976822"/>
     <use style="fill:#98fb98;stroke:#ffffff;stroke-width:0.75;" x="324.391736" xlink:href="#m85150c2d51" y="97.557442"/>
     <use style="fill:#98fb98;stroke:#ffffff;stroke-width:0.75;" x="325.023115" xlink:href="#m85150c2d51" y="-1"/>
     <use style="fill:#98fb98;stroke:#ffffff;stroke-width:0.75;" x="330.048787" xlink:href="#m85150c2d51" y="-1"/>
     <use style="fill:#98fb98;stroke:#ffffff;stroke-width:0.75;" x="330.540496" xlink:href="#m85150c2d51" y="71.604166"/>
     <use style="fill:#98fb98;stroke:#ffffff;stroke-width:0.75;" x="331.141655" xlink:href="#m85150c2d51" y="-1"/>
     <use style="fill:#98fb98;stroke:#ffffff;stroke-width:0.75;" x="347.802816" xlink:href="#m85150c2d51" y="-1"/>
     <use style="fill:#98fb98;stroke:#ffffff;stroke-width:0.75;" x="348.986777" xlink:href="#m85150c2d51" y="65.993489"/>
     <use style="fill:#98fb98;stroke:#ffffff;stroke-width:0.75;" x="349.286712" xlink:href="#m85150c2d51" y="-1"/>
    </g>
   </g>
   <g id="matplotlib.axis_1">
    <g id="xtick_1">
     <g id="line2d_1">
      <defs>
       <path d="M 0 0 
L 0 3.5 
" id="mbe96491853" style="stroke:#000000;stroke-width:0.8;"/>
      </defs>
      <g>
       <use style="stroke:#000000;stroke-width:0.8;" x="69.218182" xlink:href="#mbe96491853" y="252"/>
      </g>
     </g>
     <g id="text_1">
      <!-- 0 -->
      <defs>
       <path d="M 31.78125 66.40625 
Q 24.171875 66.40625 20.328125 58.90625 
Q 16.5 51.421875 16.5 36.375 
Q 16.5 21.390625 20.328125 13.890625 
Q 24.171875 6.390625 31.78125 6.390625 
Q 39.453125 6.390625 43.28125 13.890625 
Q 47.125 21.390625 47.125 36.375 
Q 47.125 51.421875 43.28125 58.90625 
Q 39.453125 66.40625 31.78125 66.40625 
z
M 31.78125 74.21875 
Q 44.046875 74.21875 50.515625 64.515625 
Q 56.984375 54.828125 56.984375 36.375 
Q 56.984375 17.96875 50.515625 8.265625 
Q 44.046875 -1.421875 31.78125 -1.421875 
Q 19.53125 -1.421875 13.0625 8.265625 
Q 6.59375 17.96875 6.59375 36.375 
Q 6.59375 54.828125 13.0625 64.515625 
Q 19.53125 74.21875 31.78125 74.21875 
z
" id="DejaVuSans-48"/>
      </defs>
      <g transform="translate(66.036932 266.598437)scale(0.1 -0.1)">
       <use xlink:href="#DejaVuSans-48"/>
      </g>
     </g>
    </g>
    <g id="xtick_2">
     <g id="line2d_2">
      <g>
       <use style="stroke:#000000;stroke-width:0.8;" x="130.705785" xlink:href="#mbe96491853" y="252"/>
      </g>
     </g>
     <g id="text_2">
      <!-- 20 -->
      <defs>
       <path d="M 19.1875 8.296875 
L 53.609375 8.296875 
L 53.609375 0 
L 7.328125 0 
L 7.328125 8.296875 
Q 12.9375 14.109375 22.625 23.890625 
Q 32.328125 33.6875 34.8125 36.53125 
Q 39.546875 41.84375 41.421875 45.53125 
Q 43.3125 49.21875 43.3125 52.78125 
Q 43.3125 58.59375 39.234375 62.25 
Q 35.15625 65.921875 28.609375 65.921875 
Q 23.96875 65.921875 18.8125 64.3125 
Q 13.671875 62.703125 7.8125 59.421875 
L 7.8125 69.390625 
Q 13.765625 71.78125 18.9375 73 
Q 24.125 74.21875 28.421875 74.21875 
Q 39.75 74.21875 46.484375 68.546875 
Q 53.21875 62.890625 53.21875 53.421875 
Q 53.21875 48.921875 51.53125 44.890625 
Q 49.859375 40.875 45.40625 35.40625 
Q 44.1875 33.984375 37.640625 27.21875 
Q 31.109375 20.453125 19.1875 8.296875 
z
" id="DejaVuSans-50"/>
      </defs>
      <g transform="translate(124.343285 266.598437)scale(0.1 -0.1)">
       <use xlink:href="#DejaVuSans-50"/>
       <use x="63.623047" xlink:href="#DejaVuSans-48"/>
      </g>
     </g>
    </g>
    <g id="xtick_3">
     <g id="line2d_3">
      <g>
       <use style="stroke:#000000;stroke-width:0.8;" x="192.193388" xlink:href="#mbe96491853" y="252"/>
      </g>
     </g>
     <g id="text_3">
      <!-- 40 -->
      <defs>
       <path d="M 37.796875 64.3125 
L 12.890625 25.390625 
L 37.796875 25.390625 
z
M 35.203125 72.90625 
L 47.609375 72.90625 
L 47.609375 25.390625 
L 58.015625 25.390625 
L 58.015625 17.1875 
L 47.609375 17.1875 
L 47.609375 0 
L 37.796875 0 
L 37.796875 17.1875 
L 4.890625 17.1875 
L 4.890625 26.703125 
z
" id="DejaVuSans-52"/>
      </defs>
      <g transform="translate(185.830888 266.598437)scale(0.1 -0.1)">
       <use xlink:href="#DejaVuSans-52"/>
       <use x="63.623047" xlink:href="#DejaVuSans-48"/>
      </g>
     </g>
    </g>
    <g id="xtick_4">
     <g id="line2d_4">
      <g>
       <use style="stroke:#000000;stroke-width:0.8;" x="253.680992" xlink:href="#mbe96491853" y="252"/>
      </g>
     </g>
     <g id="text_4">
      <!-- 60 -->
      <defs>
       <path d="M 33.015625 40.375 
Q 26.375 40.375 22.484375 35.828125 
Q 18.609375 31.296875 18.609375 23.390625 
Q 18.609375 15.53125 22.484375 10.953125 
Q 26.375 6.390625 33.015625 6.390625 
Q 39.65625 6.390625 43.53125 10.953125 
Q 47.40625 15.53125 47.40625 23.390625 
Q 47.40625 31.296875 43.53125 35.828125 
Q 39.65625 40.375 33.015625 40.375 
z
M 52.59375 71.296875 
L 52.59375 62.3125 
Q 48.875 64.0625 45.09375 64.984375 
Q 41.3125 65.921875 37.59375 65.921875 
Q 27.828125 65.921875 22.671875 59.328125 
Q 17.53125 52.734375 16.796875 39.40625 
Q 19.671875 43.65625 24.015625 45.921875 
Q 28.375 48.1875 33.59375 48.1875 
Q 44.578125 48.1875 50.953125 41.515625 
Q 57.328125 34.859375 57.328125 23.390625 
Q 57.328125 12.15625 50.6875 5.359375 
Q 44.046875 -1.421875 33.015625 -1.421875 
Q 20.359375 -1.421875 13.671875 8.265625 
Q 6.984375 17.96875 6.984375 36.375 
Q 6.984375 53.65625 15.1875 63.9375 
Q 23.390625 74.21875 37.203125 74.21875 
Q 40.921875 74.21875 44.703125 73.484375 
Q 48.484375 72.75 52.59375 71.296875 
z
" id="DejaVuSans-54"/>
      </defs>
      <g transform="translate(247.318492 266.598437)scale(0.1 -0.1)">
       <use xlink:href="#DejaVuSans-54"/>
       <use x="63.623047" xlink:href="#DejaVuSans-48"/>
      </g>
     </g>
    </g>
    <g id="xtick_5">
     <g id="line2d_5">
      <g>
       <use style="stroke:#000000;stroke-width:0.8;" x="315.168595" xlink:href="#mbe96491853" y="252"/>
      </g>
     </g>
     <g id="text_5">
      <!-- 80 -->
      <defs>
       <path d="M 31.78125 34.625 
Q 24.75 34.625 20.71875 30.859375 
Q 16.703125 27.09375 16.703125 20.515625 
Q 16.703125 13.921875 20.71875 10.15625 
Q 24.75 6.390625 31.78125 6.390625 
Q 38.8125 6.390625 42.859375 10.171875 
Q 46.921875 13.96875 46.921875 20.515625 
Q 46.921875 27.09375 42.890625 30.859375 
Q 38.875 34.625 31.78125 34.625 
z
M 21.921875 38.8125 
Q 15.578125 40.375 12.03125 44.71875 
Q 8.5 49.078125 8.5 55.328125 
Q 8.5 64.0625 14.71875 69.140625 
Q 20.953125 74.21875 31.78125 74.21875 
Q 42.671875 74.21875 48.875 69.140625 
Q 55.078125 64.0625 55.078125 55.328125 
Q 55.078125 49.078125 51.53125 44.71875 
Q 48 40.375 41.703125 38.8125 
Q 48.828125 37.15625 52.796875 32.3125 
Q 56.78125 27.484375 56.78125 20.515625 
Q 56.78125 9.90625 50.3125 4.234375 
Q 43.84375 -1.421875 31.78125 -1.421875 
Q 19.734375 -1.421875 13.25 4.234375 
Q 6.78125 9.90625 6.78125 20.515625 
Q 6.78125 27.484375 10.78125 32.3125 
Q 14.796875 37.15625 21.921875 38.8125 
z
M 18.3125 54.390625 
Q 18.3125 48.734375 21.84375 45.5625 
Q 25.390625 42.390625 31.78125 42.390625 
Q 38.140625 42.390625 41.71875 45.5625 
Q 45.3125 48.734375 45.3125 54.390625 
Q 45.3125 60.0625 41.71875 63.234375 
Q 38.140625 66.40625 31.78125 66.40625 
Q 25.390625 66.40625 21.84375 63.234375 
Q 18.3125 60.0625 18.3125 54.390625 
z
" id="DejaVuSans-56"/>
      </defs>
      <g transform="translate(308.806095 266.598437)scale(0.1 -0.1)">
       <use xlink:href="#DejaVuSans-56"/>
       <use x="63.623047" xlink:href="#DejaVuSans-48"/>
      </g>
     </g>
    </g>
    <g id="xtick_6">
     <g id="line2d_6">
      <g>
       <use style="stroke:#000000;stroke-width:0.8;" x="376.656198" xlink:href="#mbe96491853" y="252"/>
      </g>
     </g>
     <g id="text_6">
      <!-- 100 -->
      <defs>
       <path d="M 12.40625 8.296875 
L 28.515625 8.296875 
L 28.515625 63.921875 
L 10.984375 60.40625 
L 10.984375 69.390625 
L 28.421875 72.90625 
L 38.28125 72.90625 
L 38.28125 8.296875 
L 54.390625 8.296875 
L 54.390625 0 
L 12.40625 0 
z
" id="DejaVuSans-49"/>
      </defs>
      <g transform="translate(367.112448 266.598437)scale(0.1 -0.1)">
       <use xlink:href="#DejaVuSans-49"/>
       <use x="63.623047" xlink:href="#DejaVuSans-48"/>
       <use x="127.246094" xlink:href="#DejaVuSans-48"/>
      </g>
     </g>
    </g>
    <g id="text_7">
     <!-- n -->
     <defs>
      <path d="M 54.890625 33.015625 
L 54.890625 0 
L 45.90625 0 
L 45.90625 32.71875 
Q 45.90625 40.484375 42.875 44.328125 
Q 39.84375 48.1875 33.796875 48.1875 
Q 26.515625 48.1875 22.3125 43.546875 
Q 18.109375 38.921875 18.109375 30.90625 
L 18.109375 0 
L 9.078125 0 
L 9.078125 54.6875 
L 18.109375 54.6875 
L 18.109375 46.1875 
Q 21.34375 51.125 25.703125 53.5625 
Q 30.078125 56 35.796875 56 
Q 45.21875 56 50.046875 50.171875 
Q 54.890625 44.34375 54.890625 33.015625 
z
" id="DejaVuSans-110"/>
     </defs>
     <g transform="translate(218.23125 280.276563)scale(0.1 -0.1)">
      <use xlink:href="#DejaVuSans-110"/>
     </g>
    </g>
   </g>
   <g id="matplotlib.axis_2">
    <g id="ytick_1">
     <g id="line2d_7">
      <defs>
       <path d="M 0 0 
L -3.5 0 
" id="md314643811" style="stroke:#000000;stroke-width:0.8;"/>
      </defs>
      <g>
       <use style="stroke:#000000;stroke-width:0.8;" x="54" xlink:href="#md314643811" y="252"/>
      </g>
     </g>
     <g id="text_8">
      <!-- 0 -->
      <g transform="translate(40.6375 255.799219)scale(0.1 -0.1)">
       <use xlink:href="#DejaVuSans-48"/>
      </g>
     </g>
    </g>
    <g id="ytick_2">
     <g id="line2d_8">
      <g>
       <use style="stroke:#000000;stroke-width:0.8;" x="54" xlink:href="#md314643811" y="215.76"/>
      </g>
     </g>
     <g id="text_9">
      <!-- 100 -->
      <g transform="translate(27.9125 219.559219)scale(0.1 -0.1)">
       <use xlink:href="#DejaVuSans-49"/>
       <use x="63.623047" xlink:href="#DejaVuSans-48"/>
       <use x="127.246094" xlink:href="#DejaVuSans-48"/>
      </g>
     </g>
    </g>
    <g id="ytick_3">
     <g id="line2d_9">
      <g>
       <use style="stroke:#000000;stroke-width:0.8;" x="54" xlink:href="#md314643811" y="179.52"/>
      </g>
     </g>
     <g id="text_10">
      <!-- 200 -->
      <g transform="translate(27.9125 183.319219)scale(0.1 -0.1)">
       <use xlink:href="#DejaVuSans-50"/>
       <use x="63.623047" xlink:href="#DejaVuSans-48"/>
       <use x="127.246094" xlink:href="#DejaVuSans-48"/>
      </g>
     </g>
    </g>
    <g id="ytick_4">
     <g id="line2d_10">
      <g>
       <use style="stroke:#000000;stroke-width:0.8;" x="54" xlink:href="#md314643811" y="143.28"/>
      </g>
     </g>
     <g id="text_11">
      <!-- 300 -->
      <defs>
       <path d="M 40.578125 39.3125 
Q 47.65625 37.796875 51.625 33 
Q 55.609375 28.21875 55.609375 21.1875 
Q 55.609375 10.40625 48.1875 4.484375 
Q 40.765625 -1.421875 27.09375 -1.421875 
Q 22.515625 -1.421875 17.65625 -0.515625 
Q 12.796875 0.390625 7.625 2.203125 
L 7.625 11.71875 
Q 11.71875 9.328125 16.59375 8.109375 
Q 21.484375 6.890625 26.8125 6.890625 
Q 36.078125 6.890625 40.9375 10.546875 
Q 45.796875 14.203125 45.796875 21.1875 
Q 45.796875 27.640625 41.28125 31.265625 
Q 36.765625 34.90625 28.71875 34.90625 
L 20.21875 34.90625 
L 20.21875 43.015625 
L 29.109375 43.015625 
Q 36.375 43.015625 40.234375 45.921875 
Q 44.09375 48.828125 44.09375 54.296875 
Q 44.09375 59.90625 40.109375 62.90625 
Q 36.140625 65.921875 28.71875 65.921875 
Q 24.65625 65.921875 20.015625 65.03125 
Q 15.375 64.15625 9.8125 62.3125 
L 9.8125 71.09375 
Q 15.4375 72.65625 20.34375 73.4375 
Q 25.25 74.21875 29.59375 74.21875 
Q 40.828125 74.21875 47.359375 69.109375 
Q 53.90625 64.015625 53.90625 55.328125 
Q 53.90625 49.265625 50.4375 45.09375 
Q 46.96875 40.921875 40.578125 39.3125 
z
" id="DejaVuSans-51"/>
      </defs>
      <g transform="translate(27.9125 147.079219)scale(0.1 -0.1)">
       <use xlink:href="#DejaVuSans-51"/>
       <use x="63.623047" xlink:href="#DejaVuSans-48"/>
       <use x="127.246094" xlink:href="#DejaVuSans-48"/>
      </g>
     </g>
    </g>
    <g id="ytick_5">
     <g id="line2d_11">
      <g>
       <use style="stroke:#000000;stroke-width:0.8;" x="54" xlink:href="#md314643811" y="107.04"/>
      </g>
     </g>
     <g id="text_12">
      <!-- 400 -->
      <g transform="translate(27.9125 110.839219)scale(0.1 -0.1)">
       <use xlink:href="#DejaVuSans-52"/>
       <use x="63.623047" xlink:href="#DejaVuSans-48"/>
       <use x="127.246094" xlink:href="#DejaVuSans-48"/>
      </g>
     </g>
    </g>
    <g id="ytick_6">
     <g id="line2d_12">
      <g>
       <use style="stroke:#000000;stroke-width:0.8;" x="54" xlink:href="#md314643811" y="70.8"/>
      </g>
     </g>
     <g id="text_13">
      <!-- 500 -->
      <defs>
       <path d="M 10.796875 72.90625 
L 49.515625 72.90625 
L 49.515625 64.59375 
L 19.828125 64.59375 
L 19.828125 46.734375 
Q 21.96875 47.46875 24.109375 47.828125 
Q 26.265625 48.1875 28.421875 48.1875 
Q 40.625 48.1875 47.75 41.5 
Q 54.890625 34.8125 54.890625 23.390625 
Q 54.890625 11.625 47.5625 5.09375 
Q 40.234375 -1.421875 26.90625 -1.421875 
Q 22.3125 -1.421875 17.546875 -0.640625 
Q 12.796875 0.140625 7.71875 1.703125 
L 7.71875 11.625 
Q 12.109375 9.234375 16.796875 8.0625 
Q 21.484375 6.890625 26.703125 6.890625 
Q 35.15625 6.890625 40.078125 11.328125 
Q 45.015625 15.765625 45.015625 23.390625 
Q 45.015625 31 40.078125 35.4375 
Q 35.15625 39.890625 26.703125 39.890625 
Q 22.75 39.890625 18.8125 39.015625 
Q 14.890625 38.140625 10.796875 36.28125 
z
" id="DejaVuSans-53"/>
      </defs>
      <g transform="translate(27.9125 74.599219)scale(0.1 -0.1)">
       <use xlink:href="#DejaVuSans-53"/>
       <use x="63.623047" xlink:href="#DejaVuSans-48"/>
       <use x="127.246094" xlink:href="#DejaVuSans-48"/>
      </g>
     </g>
    </g>
    <g id="ytick_7">
     <g id="line2d_13">
      <g>
       <use style="stroke:#000000;stroke-width:0.8;" x="54" xlink:href="#md314643811" y="34.56"/>
      </g>
     </g>
     <g id="text_14">
      <!-- 600 -->
      <g transform="translate(27.9125 38.359219)scale(0.1 -0.1)">
       <use xlink:href="#DejaVuSans-54"/>
       <use x="63.623047" xlink:href="#DejaVuSans-48"/>
       <use x="127.246094" xlink:href="#DejaVuSans-48"/>
      </g>
     </g>
    </g>
    <g id="text_15">
     <!-- tiempo (ms) -->
     <defs>
      <path d="M 18.3125 70.21875 
L 18.3125 54.6875 
L 36.8125 54.6875 
L 36.8125 47.703125 
L 18.3125 47.703125 
L 18.3125 18.015625 
Q 18.3125 11.328125 20.140625 9.421875 
Q 21.96875 7.515625 27.59375 7.515625 
L 36.8125 7.515625 
L 36.8125 0 
L 27.59375 0 
Q 17.1875 0 13.234375 3.875 
Q 9.28125 7.765625 9.28125 18.015625 
L 9.28125 47.703125 
L 2.6875 47.703125 
L 2.6875 54.6875 
L 9.28125 54.6875 
L 9.28125 70.21875 
z
" id="DejaVuSans-116"/>
      <path d="M 9.421875 54.6875 
L 18.40625 54.6875 
L 18.40625 0 
L 9.421875 0 
z
M 9.421875 75.984375 
L 18.40625 75.984375 
L 18.40625 64.59375 
L 9.421875 64.59375 
z
" id="DejaVuSans-105"/>
      <path d="M 56.203125 29.59375 
L 56.203125 25.203125 
L 14.890625 25.203125 
Q 15.484375 15.921875 20.484375 11.0625 
Q 25.484375 6.203125 34.421875 6.203125 
Q 39.59375 6.203125 44.453125 7.46875 
Q 49.3125 8.734375 54.109375 11.28125 
L 54.109375 2.78125 
Q 49.265625 0.734375 44.1875 -0.34375 
Q 39.109375 -1.421875 33.890625 -1.421875 
Q 20.796875 -1.421875 13.15625 6.1875 
Q 5.515625 13.8125 5.515625 26.8125 
Q 5.515625 40.234375 12.765625 48.109375 
Q 20.015625 56 32.328125 56 
Q 43.359375 56 49.78125 48.890625 
Q 56.203125 41.796875 56.203125 29.59375 
z
M 47.21875 32.234375 
Q 47.125 39.59375 43.09375 43.984375 
Q 39.0625 48.390625 32.421875 48.390625 
Q 24.90625 48.390625 20.390625 44.140625 
Q 15.875 39.890625 15.1875 32.171875 
z
" id="DejaVuSans-101"/>
      <path d="M 52 44.1875 
Q 55.375 50.25 60.0625 53.125 
Q 64.75 56 71.09375 56 
Q 79.640625 56 84.28125 50.015625 
Q 88.921875 44.046875 88.921875 33.015625 
L 88.921875 0 
L 79.890625 0 
L 79.890625 32.71875 
Q 79.890625 40.578125 77.09375 44.375 
Q 74.3125 48.1875 68.609375 48.1875 
Q 61.625 48.1875 57.5625 43.546875 
Q 53.515625 38.921875 53.515625 30.90625 
L 53.515625 0 
L 44.484375 0 
L 44.484375 32.71875 
Q 44.484375 40.625 41.703125 44.40625 
Q 38.921875 48.1875 33.109375 48.1875 
Q 26.21875 48.1875 22.15625 43.53125 
Q 18.109375 38.875 18.109375 30.90625 
L 18.109375 0 
L 9.078125 0 
L 9.078125 54.6875 
L 18.109375 54.6875 
L 18.109375 46.1875 
Q 21.1875 51.21875 25.484375 53.609375 
Q 29.78125 56 35.6875 56 
Q 41.65625 56 45.828125 52.96875 
Q 50 49.953125 52 44.1875 
z
" id="DejaVuSans-109"/>
      <path d="M 18.109375 8.203125 
L 18.109375 -20.796875 
L 9.078125 -20.796875 
L 9.078125 54.6875 
L 18.109375 54.6875 
L 18.109375 46.390625 
Q 20.953125 51.265625 25.265625 53.625 
Q 29.59375 56 35.59375 56 
Q 45.5625 56 51.78125 48.09375 
Q 58.015625 40.1875 58.015625 27.296875 
Q 58.015625 14.40625 51.78125 6.484375 
Q 45.5625 -1.421875 35.59375 -1.421875 
Q 29.59375 -1.421875 25.265625 0.953125 
Q 20.953125 3.328125 18.109375 8.203125 
z
M 48.6875 27.296875 
Q 48.6875 37.203125 44.609375 42.84375 
Q 40.53125 48.484375 33.40625 48.484375 
Q 26.265625 48.484375 22.1875 42.84375 
Q 18.109375 37.203125 18.109375 27.296875 
Q 18.109375 17.390625 22.1875 11.75 
Q 26.265625 6.109375 33.40625 6.109375 
Q 40.53125 6.109375 44.609375 11.75 
Q 48.6875 17.390625 48.6875 27.296875 
z
" id="DejaVuSans-112"/>
      <path d="M 30.609375 48.390625 
Q 23.390625 48.390625 19.1875 42.75 
Q 14.984375 37.109375 14.984375 27.296875 
Q 14.984375 17.484375 19.15625 11.84375 
Q 23.34375 6.203125 30.609375 6.203125 
Q 37.796875 6.203125 41.984375 11.859375 
Q 46.1875 17.53125 46.1875 27.296875 
Q 46.1875 37.015625 41.984375 42.703125 
Q 37.796875 48.390625 30.609375 48.390625 
z
M 30.609375 56 
Q 42.328125 56 49.015625 48.375 
Q 55.71875 40.765625 55.71875 27.296875 
Q 55.71875 13.875 49.015625 6.21875 
Q 42.328125 -1.421875 30.609375 -1.421875 
Q 18.84375 -1.421875 12.171875 6.21875 
Q 5.515625 13.875 5.515625 27.296875 
Q 5.515625 40.765625 12.171875 48.375 
Q 18.84375 56 30.609375 56 
z
" id="DejaVuSans-111"/>
      <path id="DejaVuSans-32"/>
      <path d="M 31 75.875 
Q 24.46875 64.65625 21.28125 53.65625 
Q 18.109375 42.671875 18.109375 31.390625 
Q 18.109375 20.125 21.3125 9.0625 
Q 24.515625 -2 31 -13.1875 
L 23.1875 -13.1875 
Q 15.875 -1.703125 12.234375 9.375 
Q 8.59375 20.453125 8.59375 31.390625 
Q 8.59375 42.28125 12.203125 53.3125 
Q 15.828125 64.359375 23.1875 75.875 
z
" id="DejaVuSans-40"/>
      <path d="M 44.28125 53.078125 
L 44.28125 44.578125 
Q 40.484375 46.53125 36.375 47.5 
Q 32.28125 48.484375 27.875 48.484375 
Q 21.1875 48.484375 17.84375 46.4375 
Q 14.5 44.390625 14.5 40.28125 
Q 14.5 37.15625 16.890625 35.375 
Q 19.28125 33.59375 26.515625 31.984375 
L 29.59375 31.296875 
Q 39.15625 29.25 43.1875 25.515625 
Q 47.21875 21.78125 47.21875 15.09375 
Q 47.21875 7.46875 41.1875 3.015625 
Q 35.15625 -1.421875 24.609375 -1.421875 
Q 20.21875 -1.421875 15.453125 -0.5625 
Q 10.6875 0.296875 5.421875 2 
L 5.421875 11.28125 
Q 10.40625 8.6875 15.234375 7.390625 
Q 20.0625 6.109375 24.8125 6.109375 
Q 31.15625 6.109375 34.5625 8.28125 
Q 37.984375 10.453125 37.984375 14.40625 
Q 37.984375 18.0625 35.515625 20.015625 
Q 33.0625 21.96875 24.703125 23.78125 
L 21.578125 24.515625 
Q 13.234375 26.265625 9.515625 29.90625 
Q 5.8125 33.546875 5.8125 39.890625 
Q 5.8125 47.609375 11.28125 51.796875 
Q 16.75 56 26.8125 56 
Q 31.78125 56 36.171875 55.265625 
Q 40.578125 54.546875 44.28125 53.078125 
z
" id="DejaVuSans-115"/>
      <path d="M 8.015625 75.875 
L 15.828125 75.875 
Q 23.140625 64.359375 26.78125 53.3125 
Q 30.421875 42.28125 30.421875 31.390625 
Q 30.421875 20.453125 26.78125 9.375 
Q 23.140625 -1.703125 15.828125 -13.1875 
L 8.015625 -13.1875 
Q 14.5 -2 17.703125 9.0625 
Q 20.90625 20.125 20.90625 31.390625 
Q 20.90625 42.671875 17.703125 53.65625 
Q 14.5 64.65625 8.015625 75.875 
z
" id="DejaVuSans-41"/>
     </defs>
     <g transform="translate(21.832812 173.775312)rotate(-90)scale(0.1 -0.1)">
      <use xlink:href="#DejaVuSans-116"/>
      <use x="39.208984" xlink:href="#DejaVuSans-105"/>
      <use x="66.992188" xlink:href="#DejaVuSans-101"/>
      <use x="128.515625" xlink:href="#DejaVuSans-109"/>
      <use x="225.927734" xlink:href="#DejaVuSans-112"/>
      <use x="289.404297" xlink:href="#DejaVuSans-111"/>
      <use x="350.585938" xlink:href="#DejaVuSans-32"/>
      <use x="382.373047" xlink:href="#DejaVuSans-40"/>
      <use x="421.386719" xlink:href="#DejaVuSans-109"/>
      <use x="518.798828" xlink:href="#DejaVuSans-115"/>
      <use x="570.898438" xlink:href="#DejaVuSans-41"/>
     </g>
    </g>
   </g>
   <g id="line2d_14">
    <path clip-path="url(#p035d822959)" d="M 69.218182 251.999995 
L 72.292562 251.999989 
L 75.366942 251.999978 
L 78.441322 251.999957 
L 81.515702 251.999913 
L 84.590083 251.999826 
L 87.664463 251.999652 
L 90.738843 251.999304 
L 93.813223 251.998608 
L 96.887603 251.997217 
L 99.961983 251.994434 
L 103.036364 251.988867 
L 106.110744 251.977734 
L 109.185124 251.955468 
L 112.259504 251.910937 
L 115.333884 251.821873 
L 118.408264 251.643746 
L 121.482645 251.287493 
L 124.557025 250.574985 
L 127.631405 249.14997 
L 130.705785 246.299941 
L 133.780165 240.599882 
L 136.854545 229.199763 
L 139.928926 206.399527 
L 143.003306 160.799054 
L 146.077686 69.598108 
L 147.267616 -1 
" style="fill:none;stroke:#cd5c5c;stroke-linecap:square;stroke-width:1.5;"/>
   </g>
   <g id="patch_3">
    <path d="M 54 252 
L 54 34.56 
" style="fill:none;stroke:#000000;stroke-linecap:square;stroke-linejoin:miter;stroke-width:0.8;"/>
   </g>
   <g id="patch_4">
    <path d="M 388.8 252 
L 388.8 34.56 
" style="fill:none;stroke:#000000;stroke-linecap:square;stroke-linejoin:miter;stroke-width:0.8;"/>
   </g>
   <g id="patch_5">
    <path d="M 54 252 
L 388.8 252 
" style="fill:none;stroke:#000000;stroke-linecap:square;stroke-linejoin:miter;stroke-width:0.8;"/>
   </g>
   <g id="patch_6">
    <path d="M 54 34.56 
L 388.8 34.56 
" style="fill:none;stroke:#000000;stroke-linecap:square;stroke-linejoin:miter;stroke-width:0.8;"/>
   </g>
   <g id="legend_1">
    <g id="patch_7">
     <path d="M 170.078906 86.594375 
L 272.721094 86.594375 
Q 274.721094 86.594375 274.721094 84.594375 
L 274.721094 41.56 
Q 274.721094 39.56 272.721094 39.56 
L 170.078906 39.56 
Q 168.078906 39.56 168.078906 41.56 
L 168.078906 84.594375 
Q 168.078906 86.594375 170.078906 86.594375 
z
" style="fill:#ffffff;opacity:0.8;stroke:#cccccc;stroke-linejoin:miter;"/>
    </g>
    <g id="line2d_15">
     <path d="M 172.078906 47.658438 
L 192.078906 47.658438 
" style="fill:none;stroke:#cd5c5c;stroke-linecap:square;stroke-width:1.5;"/>
    </g>
    <g id="line2d_16"/>
    <g id="text_16">
     <!-- O(2^(n/2)) -->
     <defs>
      <path d="M 39.40625 66.21875 
Q 28.65625 66.21875 22.328125 58.203125 
Q 16.015625 50.203125 16.015625 36.375 
Q 16.015625 22.609375 22.328125 14.59375 
Q 28.65625 6.59375 39.40625 6.59375 
Q 50.140625 6.59375 56.421875 14.59375 
Q 62.703125 22.609375 62.703125 36.375 
Q 62.703125 50.203125 56.421875 58.203125 
Q 50.140625 66.21875 39.40625 66.21875 
z
M 39.40625 74.21875 
Q 54.734375 74.21875 63.90625 63.9375 
Q 73.09375 53.65625 73.09375 36.375 
Q 73.09375 19.140625 63.90625 8.859375 
Q 54.734375 -1.421875 39.40625 -1.421875 
Q 24.03125 -1.421875 14.8125 8.828125 
Q 5.609375 19.09375 5.609375 36.375 
Q 5.609375 53.65625 14.8125 63.9375 
Q 24.03125 74.21875 39.40625 74.21875 
z
" id="DejaVuSans-79"/>
      <path d="M 46.6875 72.90625 
L 73.1875 45.703125 
L 63.375 45.703125 
L 41.890625 64.984375 
L 20.40625 45.703125 
L 10.59375 45.703125 
L 37.109375 72.90625 
z
" id="DejaVuSans-94"/>
      <path d="M 25.390625 72.90625 
L 33.6875 72.90625 
L 8.296875 -9.28125 
L 0 -9.28125 
z
" id="DejaVuSans-47"/>
     </defs>
     <g transform="translate(200.078906 51.158438)scale(0.1 -0.1)">
      <use xlink:href="#DejaVuSans-79"/>
      <use x="78.710938" xlink:href="#DejaVuSans-40"/>
      <use x="117.724609" xlink:href="#DejaVuSans-50"/>
      <use x="181.347656" xlink:href="#DejaVuSans-94"/>
      <use x="265.136719" xlink:href="#DejaVuSans-40"/>
      <use x="304.150391" xlink:href="#DejaVuSans-110"/>
      <use x="367.529297" xlink:href="#DejaVuSans-47"/>
      <use x="401.220703" xlink:href="#DejaVuSans-50"/>
      <use x="464.84375" xlink:href="#DejaVuSans-41"/>
      <use x="503.857422" xlink:href="#DejaVuSans-41"/>
     </g>
    </g>
    <g id="PathCollection_3">
     <g>
      <use style="fill:#f4a460;stroke:#ffffff;stroke-width:0.75;" x="182.078906" xlink:href="#md904eb8c56" y="63.211563"/>
     </g>
    </g>
    <g id="text_17">
     <!-- densidad-alta -->
     <defs>
      <path d="M 45.40625 46.390625 
L 45.40625 75.984375 
L 54.390625 75.984375 
L 54.390625 0 
L 45.40625 0 
L 45.40625 8.203125 
Q 42.578125 3.328125 38.25 0.953125 
Q 33.9375 -1.421875 27.875 -1.421875 
Q 17.96875 -1.421875 11.734375 6.484375 
Q 5.515625 14.40625 5.515625 27.296875 
Q 5.515625 40.1875 11.734375 48.09375 
Q 17.96875 56 27.875 56 
Q 33.9375 56 38.25 53.625 
Q 42.578125 51.265625 45.40625 46.390625 
z
M 14.796875 27.296875 
Q 14.796875 17.390625 18.875 11.75 
Q 22.953125 6.109375 30.078125 6.109375 
Q 37.203125 6.109375 41.296875 11.75 
Q 45.40625 17.390625 45.40625 27.296875 
Q 45.40625 37.203125 41.296875 42.84375 
Q 37.203125 48.484375 30.078125 48.484375 
Q 22.953125 48.484375 18.875 42.84375 
Q 14.796875 37.203125 14.796875 27.296875 
z
" id="DejaVuSans-100"/>
      <path d="M 34.28125 27.484375 
Q 23.390625 27.484375 19.1875 25 
Q 14.984375 22.515625 14.984375 16.5 
Q 14.984375 11.71875 18.140625 8.90625 
Q 21.296875 6.109375 26.703125 6.109375 
Q 34.1875 6.109375 38.703125 11.40625 
Q 43.21875 16.703125 43.21875 25.484375 
L 43.21875 27.484375 
z
M 52.203125 31.203125 
L 52.203125 0 
L 43.21875 0 
L 43.21875 8.296875 
Q 40.140625 3.328125 35.546875 0.953125 
Q 30.953125 -1.421875 24.3125 -1.421875 
Q 15.921875 -1.421875 10.953125 3.296875 
Q 6 8.015625 6 15.921875 
Q 6 25.140625 12.171875 29.828125 
Q 18.359375 34.515625 30.609375 34.515625 
L 43.21875 34.515625 
L 43.21875 35.40625 
Q 43.21875 41.609375 39.140625 45 
Q 35.0625 48.390625 27.6875 48.390625 
Q 23 48.390625 18.546875 47.265625 
Q 14.109375 46.140625 10.015625 43.890625 
L 10.015625 52.203125 
Q 14.9375 54.109375 19.578125 55.046875 
Q 24.21875 56 28.609375 56 
Q 40.484375 56 46.34375 49.84375 
Q 52.203125 43.703125 52.203125 31.203125 
z
" id="DejaVuSans-97"/>
      <path d="M 4.890625 31.390625 
L 31.203125 31.390625 
L 31.203125 23.390625 
L 4.890625 23.390625 
z
" id="DejaVuSans-45"/>
      <path d="M 9.421875 75.984375 
L 18.40625 75.984375 
L 18.40625 0 
L 9.421875 0 
z
" id="DejaVuSans-108"/>
     </defs>
     <g transform="translate(200.078906 65.836563)scale(0.1 -0.1)">
      <use xlink:href="#DejaVuSans-100"/>
      <use x="63.476562" xlink:href="#DejaVuSans-101"/>
      <use x="125" xlink:href="#DejaVuSans-110"/>
      <use x="188.378906" xlink:href="#DejaVuSans-115"/>
      <use x="240.478516" xlink:href="#DejaVuSans-105"/>
      <use x="268.261719" xlink:href="#DejaVuSans-100"/>
      <use x="331.738281" xlink:href="#DejaVuSans-97"/>
      <use x="393.017578" xlink:href="#DejaVuSans-100"/>
      <use x="456.494141" xlink:href="#DejaVuSans-45"/>
      <use x="492.578125" xlink:href="#DejaVuSans-97"/>
      <use x="553.857422" xlink:href="#DejaVuSans-108"/>
      <use x="581.640625" xlink:href="#DejaVuSans-116"/>
      <use x="620.849609" xlink:href="#DejaVuSans-97"/>
     </g>
    </g>
    <g id="PathCollection_4">
     <g>
      <use style="fill:#98fb98;stroke:#ffffff;stroke-width:0.75;" x="182.078906" xlink:href="#m85150c2d51" y="77.889688"/>
     </g>
    </g>
    <g id="text_18">
     <!-- densidad-baja -->
     <defs>
      <path d="M 48.6875 27.296875 
Q 48.6875 37.203125 44.609375 42.84375 
Q 40.53125 48.484375 33.40625 48.484375 
Q 26.265625 48.484375 22.1875 42.84375 
Q 18.109375 37.203125 18.109375 27.296875 
Q 18.109375 17.390625 22.1875 11.75 
Q 26.265625 6.109375 33.40625 6.109375 
Q 40.53125 6.109375 44.609375 11.75 
Q 48.6875 17.390625 48.6875 27.296875 
z
M 18.109375 46.390625 
Q 20.953125 51.265625 25.265625 53.625 
Q 29.59375 56 35.59375 56 
Q 45.5625 56 51.78125 48.09375 
Q 58.015625 40.1875 58.015625 27.296875 
Q 58.015625 14.40625 51.78125 6.484375 
Q 45.5625 -1.421875 35.59375 -1.421875 
Q 29.59375 -1.421875 25.265625 0.953125 
Q 20.953125 3.328125 18.109375 8.203125 
L 18.109375 0 
L 9.078125 0 
L 9.078125 75.984375 
L 18.109375 75.984375 
z
" id="DejaVuSans-98"/>
      <path d="M 9.421875 54.6875 
L 18.40625 54.6875 
L 18.40625 -0.984375 
Q 18.40625 -11.421875 14.421875 -16.109375 
Q 10.453125 -20.796875 1.609375 -20.796875 
L -1.8125 -20.796875 
L -1.8125 -13.1875 
L 0.59375 -13.1875 
Q 5.71875 -13.1875 7.5625 -10.8125 
Q 9.421875 -8.453125 9.421875 -0.984375 
z
M 9.421875 75.984375 
L 18.40625 75.984375 
L 18.40625 64.59375 
L 9.421875 64.59375 
z
" id="DejaVuSans-106"/>
     </defs>
     <g transform="translate(200.078906 80.514688)scale(0.1 -0.1)">
      <use xlink:href="#DejaVuSans-100"/>
      <use x="63.476562" xlink:href="#DejaVuSans-101"/>
      <use x="125" xlink:href="#DejaVuSans-110"/>
      <use x="188.378906" xlink:href="#DejaVuSans-115"/>
      <use x="240.478516" xlink:href="#DejaVuSans-105"/>
      <use x="268.261719" xlink:href="#DejaVuSans-100"/>
      <use x="331.738281" xlink:href="#DejaVuSans-97"/>
      <use x="393.017578" xlink:href="#DejaVuSans-100"/>
      <use x="456.494141" xlink:href="#DejaVuSans-45"/>
      <use x="492.578125" xlink:href="#DejaVuSans-98"/>
      <use x="556.054688" xlink:href="#DejaVuSans-97"/>
      <use x="617.333984" xlink:href="#DejaVuSans-106"/>
      <use x="645.117188" xlink:href="#DejaVuSans-97"/>
     </g>
    </g>
   </g>
  </g>
 </g>
 <defs>
  <clipPath id="p035d822959">
   <rect height="217.44" width="334.8" x="54" y="34.56"/>
  </clipPath>
 </defs>
</svg>
